<svg width="356" height="72" viewBox="0 0 356 72" fill="none" xmlns="http://www.w3.org/2000/svg">
<path fill-rule="evenodd" clip-rule="evenodd" d="M48.8253 0L38.9446 19.5112C42.1634 22.5578 44.17 26.8632 44.17 31.6355C44.17 32.6713 44.0754 33.6852 43.8946 34.6688L53 41.997L42.1638 39.5701C39.7246 44.0695 35.2753 47.3288 30.0145 48.1536L27.3838 72L25.2151 48.2195C23.6478 48.0181 22.1483 47.6013 20.7474 47.0001L14.6727 51.0776L17.3265 45.0254C13.4109 42.102 10.8198 37.5139 10.611 32.3153L0 28.2009L11.2462 27.0165C11.9242 24.6613 13.1077 22.5191 14.6723 20.7136L14.6727 16.5244L19.6956 16.7665C21.0923 16.0484 22.6032 15.5198 24.1941 15.2149H24.0266L26.6043 1.53565L29.1445 15.0042C31.0976 15.207 32.9512 15.7434 34.6467 16.5553L48.8253 0ZM27.3838 23.8318C23.0573 23.8318 19.5502 27.3257 19.5502 31.6355C19.5502 35.9454 23.0573 39.4393 27.3838 39.4393C31.7101 39.4393 35.2174 35.9454 35.2174 31.6355C35.2174 27.3257 31.7101 23.8318 27.3838 23.8318Z" fill="#1F2326"/>
<path fill-rule="evenodd" clip-rule="evenodd" d="M114.958 4C112.683 12.4565 109.638 28.4144 117.312 31.6382C122.429 33.7876 123.433 27.9053 120.327 13.9918C125.424 21.3133 127.616 28.3754 126.901 35.1782C127.849 35.7211 128.744 36.349 129.575 37.0512C130.798 36.3138 131.409 34.901 131.409 32.8149C132.733 35.2424 133.058 37.6461 132.383 40.0259C134.653 43.0531 136 46.8222 136 50.9074C136 60.8997 127.941 69 118 69C108.059 69 100 60.8997 100 50.9074C100 48.0276 100.669 45.305 101.86 42.888C100.69 40.1612 101.001 36.4107 102.794 31.6382C102.794 35.9353 103.602 36.9692 104.557 37.5771C104.826 37.7482 105.146 37.8472 105.519 37.8738C106.06 37.3471 106.633 36.8579 107.235 36.4056C106.291 23.9418 108.864 13.1394 114.958 4ZM118 42.3374C113.291 42.3374 109.474 46.1743 109.474 50.9074C109.474 54.5931 111.788 57.7353 115.036 58.9456C115.349 55.9813 116.576 53.9449 118.718 52.833C118.718 55.2085 118.409 57.6261 120.026 59.2334C123.759 58.3182 126.526 54.9376 126.526 50.9074C126.526 46.1743 122.709 42.3374 118 42.3374Z" fill="#1F2326"/>
<path fill-rule="evenodd" clip-rule="evenodd" d="M197.439 11.03C194.953 25.5257 197.804 46.4945 215.583 62C207.017 61.5963 200.18 60.4018 195.073 58.4166C198.192 56.42 199.752 55.4219 199.752 55.4219C181.726 43.5954 181.886 28.7607 183.92 24.9241C185.856 29.0753 187.896 31.5902 190.04 32.4689C189.381 23.2321 191.848 16.0858 197.439 11.03ZM237.561 11C243.152 16.0558 245.619 23.202 244.96 32.4389C247.104 31.5604 249.144 29.0453 251.08 24.8943C253.114 28.7306 253.274 43.5654 235.248 55.3919C235.248 55.3919 236.808 56.3902 239.927 58.3866C234.82 60.3718 227.983 61.5663 219.417 61.97C237.196 46.4645 240.047 25.4957 237.561 11ZM228.899 36.0605C229.789 40.9374 224.807 46.306 217.502 50.6421L217.502 50.6434H217.5C210.196 46.306 205.213 40.9374 206.103 36.0605C206.992 31.1828 215.042 29.5434 217.502 36.0605L217.5 36.0584L217.645 35.7002C220.262 29.6065 228.026 31.275 228.899 36.0605ZM217.5 20.439C219.617 20.439 221.333 22.1293 221.333 24.2145C221.333 26.2996 219.617 27.99 217.5 27.99C215.383 27.99 213.667 26.2996 213.667 24.2145C213.667 22.1293 215.383 20.439 217.5 20.439Z" fill="#1F2326"/>
<path fill-rule="evenodd" clip-rule="evenodd" d="M336.764 15C346.381 16.5255 351.922 28.2564 352.254 32.2683C353.365 31.0123 353.723 28.937 353.327 26.0427C355.365 27.7653 355.956 28.8955 355.996 32.9993L355.998 33.4676L356 58C352.627 56.7592 348.408 55.742 343.616 55.0315L343.615 27.8506C343.615 23.433 340.091 17.4457 336.764 15ZM299.001 25.7853C304.863 37.7594 308.957 44.7233 311.282 46.6767L311.281 55.0413C306.533 55.7487 302.352 56.7573 299 57.9862L299.001 25.7853ZM328.539 15.3894C327.23 19.941 326.525 24.6148 326.424 29.4107L326.411 30.6123L326.412 53.9073C321.888 53.9465 317.566 54.2341 313.586 54.727L313.587 27.4655C313.587 23.0174 311.825 19.9392 309.7 17.5544C312.291 18.3832 314.203 19.9548 315.436 22.2692C317.285 25.7409 316.168 34.835 319.586 34.835C323.005 34.835 323.008 29.2027 323.397 24.929C323.656 22.0799 325.37 18.9001 328.539 15.3894ZM331.697 22.3226C331.645 29.0466 332.616 32.4086 334.611 32.4086C336.605 32.4086 337.171 29.351 336.31 23.2354C338.94 26.362 340.256 29.0679 340.256 31.3529L340.256 54.5947C336.741 54.1997 332.977 53.9628 329.056 53.9126V30.4907C329.056 26.8776 329.937 24.1549 331.697 22.3226ZM303.682 18.1662C307.36 20.3071 309.464 22.7237 309.995 25.4163L310.057 25.7853L306.083 33.9191C306.516 29.5591 305.715 24.3081 303.682 18.1662Z" fill="#1F2326"/>
</svg>
